<?xml version="1.0" encoding="UTF-8"?>
<svg width="10.583mm" height="11.388mm" version="1.1" viewBox="0 0 10.583 11.388" xmlns="http://www.w3.org/2000/svg" xmlns:xlink="http://www.w3.org/1999/xlink">
<defs>
<linearGradient id="f" x1="531.87" x2="542" y1="343.94" y2="344.31" gradientTransform="matrix(.23046 0 0 .23046 -27.609 35.179)" gradientUnits="userSpaceOnUse" xlink:href="#a"/>
<linearGradient id="a">
<stop stop-color="#1a1a1a" stop-opacity="0" offset="0"/>
<stop offset=".47896"/>
<stop stop-color="#1a1a1a" stop-opacity="0" offset="1"/>
</linearGradient>
<linearGradient id="e" x1="2064.7" x2="2034.4" y1="1269.2" y2="1430.8" gradientTransform="matrix(.060977 0 0 .060977 -30.726 27.718)" gradientUnits="userSpaceOnUse" xlink:href="#b"/>
<linearGradient id="b">
<stop stop-color="#fc0" offset="0"/>
<stop stop-color="#f00" offset="1"/>
</linearGradient>
<linearGradient id="d" x1="531.87" x2="542" y1="343.94" y2="344.31" gradientTransform="matrix(.23046 0 0 .23046 -30.726 27.718)" gradientUnits="userSpaceOnUse" xlink:href="#a"/>
<linearGradient id="c" x1="527.64" x2="537.05" y1="385.23" y2="342.48" gradientTransform="matrix(.23046 0 0 .23046 -30.726 27.718)" gradientUnits="userSpaceOnUse" xlink:href="#b"/>
</defs>
<g transform="translate(-88.509 -105.11)">
<g>
<path d="m91.345 106.65a0.42688 0.42688 0 0 0-0.41231 0.31643l-2.4091 8.9979a0.42688 0.42688 0 0 0 0.41231 0.537h6.7982a0.42688 0.42688 0 0 0 0.41231-0.31644l0.80437-2.9996a0.42688 0.42688 0 0 0-0.41231-0.53745h-2.8461l1.4642-5.4604a0.42688 0.42688 0 0 0-0.41231-0.53744zm0.32769 0.85388h2.5153l-1.4642 5.4604a0.42688 0.42688 0 0 0 0.41231 0.53745h2.8461l-0.57571 2.1462h-5.9146z" color="#000000" fill="url(#c)" stroke-linecap="round" stroke-linejoin="round" stroke-width=".85367" style="-inkscape-stroke:none"/>
<path d="m91.916 107.5 0.2288-0.85388h2.0275l-0.2288 0.85388z" fill="url(#d)" opacity=".33609"/>
<path d="m93.472 105.11c-0.19321 1e-5 -0.36232 0.1298-0.4123 0.31643l-2.409 8.998c-0.07235 0.27098 0.13183 0.53691 0.4123 0.537h4.5272l0.22866-0.85344h-4.1999l2.1809-8.144h2.5153l-1.4643 5.4605c-0.07264 0.2711 0.13164 0.53733 0.41231 0.53735h2.8461l-0.5757 2.1462h-0.83121l-0.22866 0.85344h1.3875c0.19321-2e-5 0.36232-0.1298 0.41231-0.31643l0.80436-2.9996c0.07264-0.2711-0.13164-0.53733-0.4123-0.53735h-2.8461l1.4643-5.4605c0.07273-0.27115-0.13157-0.53747-0.4123-0.53747z" color="#000000" fill="url(#e)" stroke-width=".85367" style="-inkscape-stroke:none"/>
<path d="m95.262 114.11-0.2289 0.85391h0.55641l0.22902-0.85391zm1.4403 0-0.2289 0.85391h0.58714l0.2289-0.85391z" fill="url(#f)" opacity=".33609"/>
</g>
</g>
</svg>
